<?xml version="1.0" standalone="no"?>
<!DOCTYPE svg PUBLIC "-//W3C//DTD SVG 20010904//EN"
 "http://www.w3.org/TR/2001/REC-SVG-20010904/DTD/svg10.dtd">
<svg version="1.0" xmlns="http://www.w3.org/2000/svg"
 width="4167.000000pt" height="4167.000000pt" viewBox="0 0 4167.000000 4167.000000"
 preserveAspectRatio="xMidYMid meet">
<metadata>
Created by potrace 1.14, written by Peter Selinger 2001-2017
</metadata>
<g transform="translate(0.000000,4167.000000) scale(0.100000,-0.100000)"
fill="#000000" stroke="none">
<path d="M0 20835 l0 -20835 20835 0 20835 0 0 20835 0 20835 -20835 0 -20835
0 0 -20835z m14345 1660 c421 -60 797 -243 1102 -538 l92 -89 -326 -339 -326
-338 -98 93 c-107 102 -234 191 -344 242 -252 116 -537 109 -798 -22 -321
-161 -567 -499 -632 -868 -19 -112 -19 -318 0 -427 81 -470 440 -864 869 -955
262 -56 512 -3 750 159 81 55 225 194 287 279 50 67 139 215 139 230 0 5 -220
8 -490 8 l-490 0 0 480 0 480 1010 0 1010 0 0 -272 c0 -417 -27 -620 -116
-888 -220 -663 -757 -1169 -1422 -1341 -938 -242 -1923 262 -2316 1185 -245
574 -229 1233 44 1791 300 613 879 1041 1530 1130 130 18 402 18 525 0z m4200
-1 c748 -111 1376 -645 1623 -1379 88 -260 117 -462 109 -759 -5 -219 -22
-335 -77 -530 -203 -722 -786 -1284 -1503 -1450 -565 -131 -1195 18 -1657 391
-89 72 -277 264 -341 348 -210 274 -344 585 -411 950 -19 104 -22 154 -22 365
0 224 3 257 27 383 114 580 436 1068 912 1382 230 151 545 268 825 304 99 13
414 10 515 -5z m7437 -1989 c357 -1017 650 -1861 651 -1874 2 -22 -21 -32
-398 -176 -220 -83 -403 -149 -406 -146 -3 3 -69 185 -145 404 l-138 397 -647
0 -647 0 -15 -42 c-77 -226 -261 -745 -266 -754 -4 -7 -144 41 -410 142 -222
84 -405 154 -406 156 -2 2 833 2395 1261 3616 l46 132 436 -2 435 -3 649
-1850z m-3082 1355 l0 -450 -645 0 -645 0 0 -315 c0 -245 3 -315 13 -315 6 0
244 -1 527 -3 l515 -2 0 -435 0 -435 -505 -2 c-278 -2 -515 -3 -527 -3 l-23 0
0 -315 0 -315 645 0 645 0 0 -450 0 -450 -1080 0 -1080 0 0 1970 0 1970 1080
0 1080 0 0 -450z m6680 25 l0 -425 -525 0 -525 0 0 -1545 0 -1545 -435 0 -435
0 0 1545 0 1545 -530 0 -530 0 0 425 0 425 1490 0 1490 0 0 -425z"/>
<path d="M18125 21600 c-400 -62 -762 -397 -889 -822 -42 -140 -50 -197 -50
-353 -1 -216 35 -368 130 -559 61 -121 120 -203 223 -309 143 -147 319 -250
506 -298 132 -34 332 -32 466 4 364 96 670 404 794 797 73 234 71 513 -7 745
-128 384 -431 680 -796 777 -88 23 -282 32 -377 18z"/>
<path d="M24733 20487 c-89 -254 -160 -463 -158 -465 5 -5 638 -2 643 3 5 5
-307 905 -317 917 -4 4 -79 -201 -168 -455z"/>
</g>
</svg>
